<svg xmlns="http://www.w3.org/2000/svg" xmlns:xlink="http://www.w3.org/1999/xlink" width="32" height="32" viewBox="0 0 8.467 8.467"><defs><linearGradient id="d"><stop offset="0" style="stop-color:#f9c26f;stop-opacity:1"/></linearGradient><linearGradient id="c"><stop offset="0" style="stop-color:#4b386b;stop-opacity:1"/></linearGradient><linearGradient id="b"><stop offset="0" style="stop-color:#733790;stop-opacity:1"/></linearGradient><linearGradient id="a"><stop offset="0" style="stop-color:#fef7f6;stop-opacity:1"/></linearGradient><linearGradient xlink:href="#a" id="p" x1="-.323" x2="211.343" y1="105.187" y2="105.187" gradientTransform="translate(.323 .646)" gradientUnits="userSpaceOnUse"/><linearGradient xlink:href="#b" id="q" x1="0" x2="52.917" y1="-105.833" y2="-105.833" gradientUnits="userSpaceOnUse"/><linearGradient xlink:href="#c" id="m" x1="52.917" x2="105.833" y1="-105.833" y2="-105.833" gradientTransform="translate(-52.917 211.667)" gradientUnits="userSpaceOnUse"/><linearGradient xlink:href="#d" id="k" x1="105.833" x2="158.75" y1="-105.833" y2="-105.833" gradientTransform="matrix(.75 0 0 1 -122.89 -43.66)" gradientUnits="userSpaceOnUse"/><linearGradient xlink:href="#d" id="j" x1="105.833" x2="158.75" y1="-105.833" y2="-105.833" gradientTransform="matrix(.75 0 0 1 59.531 0)" gradientUnits="userSpaceOnUse"/><linearGradient xlink:href="#d" id="l" x1="52.917" x2="105.833" y1="-105.833" y2="-105.833" gradientTransform="matrix(.75 0 0 .5 -39.688 211.667)" gradientUnits="userSpaceOnUse"/><linearGradient xlink:href="#d" id="e" x1="105.833" x2="158.75" y1="-105.833" y2="-105.833" gradientTransform="matrix(.75 0 0 1 59.531 0)" gradientUnits="userSpaceOnUse"/><linearGradient xlink:href="#d" id="f" x1="105.833" x2="158.75" y1="-105.833" y2="-105.833" gradientTransform="matrix(.75 0 0 1 -122.89 -43.66)" gradientUnits="userSpaceOnUse"/><linearGradient xlink:href="#d" id="g" x1="52.917" x2="105.833" y1="-105.833" y2="-105.833" gradientTransform="matrix(.75 0 0 .5 -39.688 211.667)" gradientUnits="userSpaceOnUse"/><linearGradient xlink:href="#a" id="h" x1="-.323" x2="211.343" y1="105.187" y2="105.187" gradientTransform="translate(.323 .646)" gradientUnits="userSpaceOnUse"/><linearGradient xlink:href="#b" id="i" x1="0" x2="52.917" y1="-105.833" y2="-105.833" gradientUnits="userSpaceOnUse"/><linearGradient xlink:href="#a" id="n" x1="-.323" x2="211.343" y1="105.187" y2="105.187" gradientTransform="translate(.323 .646)" gradientUnits="userSpaceOnUse"/><linearGradient xlink:href="#b" id="o" x1="0" x2="52.917" y1="-105.833" y2="-105.833" gradientUnits="userSpaceOnUse"/></defs><g style="display:inline"><path d="M138.906-211.667h39.688V0h-39.688z" style="display:inline;fill:url(#e);stroke-width:.229496;stroke-dasharray:none" transform="matrix(.04002 0 0 -.04 -.004 0)"/><path d="M-43.514-255.326h39.688v211.667h-39.688z" style="display:inline;fill:url(#f);stroke-width:.229496;stroke-dasharray:none" transform="scale(.04002 -.04) rotate(45 -.051 -.124)"/><path d="M0 105.833h39.688v105.833H0z" style="display:inline;fill:url(#g);fill-opacity:1;stroke-width:.162278;stroke-dasharray:none" transform="matrix(0 .04 .04002 0 -.004 0)"/></g></svg>